<mxfile host="www.draw.io" modified="2019-11-10T06:30:23.974Z" agent="Mozilla/5.0 (Windows NT 10.0; Win64; x64) AppleWebKit/537.36 (KHTML, like Gecko) Chrome/78.0.3904.87 Safari/537.36" etag="U24KLQ9z3ZJCQlkyFHWP" version="12.2.3" type="github" pages="1">
  <diagram id="zsnYO887Zmh9USHRb_7p" name="Page-1">
    <mxGraphModel dx="2462" dy="1922" grid="0" gridSize="10" guides="1" tooltips="1" connect="1" arrows="1" fold="1" page="0" pageScale="1" pageWidth="10000" pageHeight="10000" math="0" shadow="0">
      <root>
        <mxCell id="0"/>
        <mxCell id="1" parent="0"/>
        <mxCell id="UTARnTCa7toa9BuSvRRB-27" value="" style="group" parent="1" vertex="1" connectable="0">
          <mxGeometry x="-262" y="-393" width="571" height="430" as="geometry"/>
        </mxCell>
        <mxCell id="UTARnTCa7toa9BuSvRRB-26" value="" style="rounded=0;whiteSpace=wrap;html=1;" parent="UTARnTCa7toa9BuSvRRB-27" vertex="1">
          <mxGeometry width="571" height="430" as="geometry"/>
        </mxCell>
        <mxCell id="UTARnTCa7toa9BuSvRRB-25" value="Views" style="shape=folder;fontStyle=1;spacingTop=10;tabWidth=40;tabHeight=14;tabPosition=left;html=1;" parent="UTARnTCa7toa9BuSvRRB-27" vertex="1">
          <mxGeometry x="10.5" y="11" width="70" height="50" as="geometry"/>
        </mxCell>
        <mxCell id="UTARnTCa7toa9BuSvRRB-5" value="mainFrame" style="swimlane;fontStyle=1;align=center;verticalAlign=top;childLayout=stackLayout;horizontal=1;startSize=26;horizontalStack=0;resizeParent=1;resizeParentMax=0;resizeLast=0;collapsible=1;marginBottom=0;" parent="UTARnTCa7toa9BuSvRRB-27" vertex="1">
          <mxGeometry x="387" y="135.5" width="160" height="112" as="geometry"/>
        </mxCell>
        <mxCell id="UTARnTCa7toa9BuSvRRB-6" value="+ field: type" style="text;strokeColor=none;fillColor=none;align=left;verticalAlign=top;spacingLeft=4;spacingRight=4;overflow=hidden;rotatable=0;points=[[0,0.5],[1,0.5]];portConstraint=eastwest;" parent="UTARnTCa7toa9BuSvRRB-5" vertex="1">
          <mxGeometry y="26" width="160" height="26" as="geometry"/>
        </mxCell>
        <mxCell id="UTARnTCa7toa9BuSvRRB-7" value="" style="line;strokeWidth=1;fillColor=none;align=left;verticalAlign=middle;spacingTop=-1;spacingLeft=3;spacingRight=3;rotatable=0;labelPosition=right;points=[];portConstraint=eastwest;" parent="UTARnTCa7toa9BuSvRRB-5" vertex="1">
          <mxGeometry y="52" width="160" height="8" as="geometry"/>
        </mxCell>
        <mxCell id="UTARnTCa7toa9BuSvRRB-8" value="+ createFrame(): JFrame&#xa;+ add() : void" style="text;strokeColor=none;fillColor=none;align=left;verticalAlign=top;spacingLeft=4;spacingRight=4;overflow=hidden;rotatable=0;points=[[0,0.5],[1,0.5]];portConstraint=eastwest;" parent="UTARnTCa7toa9BuSvRRB-5" vertex="1">
          <mxGeometry y="60" width="160" height="52" as="geometry"/>
        </mxCell>
        <mxCell id="UTARnTCa7toa9BuSvRRB-18" value="JFrame" style="swimlane;fontStyle=1;align=center;verticalAlign=top;childLayout=stackLayout;horizontal=1;startSize=26;horizontalStack=0;resizeParent=1;resizeParentMax=0;resizeLast=0;collapsible=1;marginBottom=0;" parent="UTARnTCa7toa9BuSvRRB-27" vertex="1">
          <mxGeometry x="387" y="19" width="160" height="90" as="geometry"/>
        </mxCell>
        <mxCell id="UTARnTCa7toa9BuSvRRB-19" value="...." style="text;strokeColor=none;fillColor=none;align=left;verticalAlign=top;spacingLeft=4;spacingRight=4;overflow=hidden;rotatable=0;points=[[0,0.5],[1,0.5]];portConstraint=eastwest;" parent="UTARnTCa7toa9BuSvRRB-18" vertex="1">
          <mxGeometry y="26" width="160" height="26" as="geometry"/>
        </mxCell>
        <mxCell id="UTARnTCa7toa9BuSvRRB-20" value="" style="line;strokeWidth=1;fillColor=none;align=left;verticalAlign=middle;spacingTop=-1;spacingLeft=3;spacingRight=3;rotatable=0;labelPosition=right;points=[];portConstraint=eastwest;" parent="UTARnTCa7toa9BuSvRRB-18" vertex="1">
          <mxGeometry y="52" width="160" height="8" as="geometry"/>
        </mxCell>
        <mxCell id="UTARnTCa7toa9BuSvRRB-21" value="..." style="text;strokeColor=none;fillColor=none;align=left;verticalAlign=top;spacingLeft=4;spacingRight=4;overflow=hidden;rotatable=0;points=[[0,0.5],[1,0.5]];portConstraint=eastwest;" parent="UTARnTCa7toa9BuSvRRB-18" vertex="1">
          <mxGeometry y="60" width="160" height="30" as="geometry"/>
        </mxCell>
        <mxCell id="UTARnTCa7toa9BuSvRRB-22" value="" style="edgeStyle=orthogonalEdgeStyle;rounded=0;orthogonalLoop=1;jettySize=auto;html=1;" parent="UTARnTCa7toa9BuSvRRB-27" source="UTARnTCa7toa9BuSvRRB-5" target="UTARnTCa7toa9BuSvRRB-18" edge="1">
          <mxGeometry relative="1" as="geometry"/>
        </mxCell>
        <mxCell id="UTARnTCa7toa9BuSvRRB-50" value="JMenuBar" style="swimlane;fontStyle=1;align=center;verticalAlign=top;childLayout=stackLayout;horizontal=1;startSize=26;horizontalStack=0;resizeParent=1;resizeParentMax=0;resizeLast=0;collapsible=1;marginBottom=0;" parent="UTARnTCa7toa9BuSvRRB-27" vertex="1">
          <mxGeometry x="24" y="115" width="160" height="86" as="geometry"/>
        </mxCell>
        <mxCell id="UTARnTCa7toa9BuSvRRB-51" value="..." style="text;strokeColor=none;fillColor=none;align=left;verticalAlign=top;spacingLeft=4;spacingRight=4;overflow=hidden;rotatable=0;points=[[0,0.5],[1,0.5]];portConstraint=eastwest;" parent="UTARnTCa7toa9BuSvRRB-50" vertex="1">
          <mxGeometry y="26" width="160" height="26" as="geometry"/>
        </mxCell>
        <mxCell id="UTARnTCa7toa9BuSvRRB-52" value="" style="line;strokeWidth=1;fillColor=none;align=left;verticalAlign=middle;spacingTop=-1;spacingLeft=3;spacingRight=3;rotatable=0;labelPosition=right;points=[];portConstraint=eastwest;" parent="UTARnTCa7toa9BuSvRRB-50" vertex="1">
          <mxGeometry y="52" width="160" height="8" as="geometry"/>
        </mxCell>
        <mxCell id="UTARnTCa7toa9BuSvRRB-53" value="+ method(type): type" style="text;strokeColor=none;fillColor=none;align=left;verticalAlign=top;spacingLeft=4;spacingRight=4;overflow=hidden;rotatable=0;points=[[0,0.5],[1,0.5]];portConstraint=eastwest;" parent="UTARnTCa7toa9BuSvRRB-50" vertex="1">
          <mxGeometry y="60" width="160" height="26" as="geometry"/>
        </mxCell>
        <mxCell id="UTARnTCa7toa9BuSvRRB-54" value="JToolBar" style="swimlane;fontStyle=1;align=center;verticalAlign=top;childLayout=stackLayout;horizontal=1;startSize=26;horizontalStack=0;resizeParent=1;resizeParentMax=0;resizeLast=0;collapsible=1;marginBottom=0;" parent="UTARnTCa7toa9BuSvRRB-27" vertex="1">
          <mxGeometry x="24" y="214" width="160" height="86" as="geometry"/>
        </mxCell>
        <mxCell id="UTARnTCa7toa9BuSvRRB-55" value="+ field: type" style="text;strokeColor=none;fillColor=none;align=left;verticalAlign=top;spacingLeft=4;spacingRight=4;overflow=hidden;rotatable=0;points=[[0,0.5],[1,0.5]];portConstraint=eastwest;" parent="UTARnTCa7toa9BuSvRRB-54" vertex="1">
          <mxGeometry y="26" width="160" height="26" as="geometry"/>
        </mxCell>
        <mxCell id="UTARnTCa7toa9BuSvRRB-56" value="" style="line;strokeWidth=1;fillColor=none;align=left;verticalAlign=middle;spacingTop=-1;spacingLeft=3;spacingRight=3;rotatable=0;labelPosition=right;points=[];portConstraint=eastwest;" parent="UTARnTCa7toa9BuSvRRB-54" vertex="1">
          <mxGeometry y="52" width="160" height="8" as="geometry"/>
        </mxCell>
        <mxCell id="UTARnTCa7toa9BuSvRRB-57" value="+ method(type): type" style="text;strokeColor=none;fillColor=none;align=left;verticalAlign=top;spacingLeft=4;spacingRight=4;overflow=hidden;rotatable=0;points=[[0,0.5],[1,0.5]];portConstraint=eastwest;" parent="UTARnTCa7toa9BuSvRRB-54" vertex="1">
          <mxGeometry y="60" width="160" height="26" as="geometry"/>
        </mxCell>
        <mxCell id="UTARnTCa7toa9BuSvRRB-58" value="JMenu" style="swimlane;fontStyle=1;align=center;verticalAlign=top;childLayout=stackLayout;horizontal=1;startSize=26;horizontalStack=0;resizeParent=1;resizeParentMax=0;resizeLast=0;collapsible=1;marginBottom=0;" parent="UTARnTCa7toa9BuSvRRB-27" vertex="1">
          <mxGeometry x="24" y="313" width="160" height="86" as="geometry"/>
        </mxCell>
        <mxCell id="UTARnTCa7toa9BuSvRRB-59" value="+ field: type" style="text;strokeColor=none;fillColor=none;align=left;verticalAlign=top;spacingLeft=4;spacingRight=4;overflow=hidden;rotatable=0;points=[[0,0.5],[1,0.5]];portConstraint=eastwest;" parent="UTARnTCa7toa9BuSvRRB-58" vertex="1">
          <mxGeometry y="26" width="160" height="26" as="geometry"/>
        </mxCell>
        <mxCell id="UTARnTCa7toa9BuSvRRB-60" value="" style="line;strokeWidth=1;fillColor=none;align=left;verticalAlign=middle;spacingTop=-1;spacingLeft=3;spacingRight=3;rotatable=0;labelPosition=right;points=[];portConstraint=eastwest;" parent="UTARnTCa7toa9BuSvRRB-58" vertex="1">
          <mxGeometry y="52" width="160" height="8" as="geometry"/>
        </mxCell>
        <mxCell id="UTARnTCa7toa9BuSvRRB-61" value="+ method(type): type" style="text;strokeColor=none;fillColor=none;align=left;verticalAlign=top;spacingLeft=4;spacingRight=4;overflow=hidden;rotatable=0;points=[[0,0.5],[1,0.5]];portConstraint=eastwest;" parent="UTARnTCa7toa9BuSvRRB-58" vertex="1">
          <mxGeometry y="60" width="160" height="26" as="geometry"/>
        </mxCell>
        <mxCell id="UTARnTCa7toa9BuSvRRB-71" value="JMenuItem" style="swimlane;fontStyle=1;align=center;verticalAlign=top;childLayout=stackLayout;horizontal=1;startSize=26;horizontalStack=0;resizeParent=1;resizeParentMax=0;resizeLast=0;collapsible=1;marginBottom=0;" parent="UTARnTCa7toa9BuSvRRB-27" vertex="1">
          <mxGeometry x="206" y="109" width="160" height="86" as="geometry"/>
        </mxCell>
        <mxCell id="UTARnTCa7toa9BuSvRRB-72" value="+ field: type" style="text;strokeColor=none;fillColor=none;align=left;verticalAlign=top;spacingLeft=4;spacingRight=4;overflow=hidden;rotatable=0;points=[[0,0.5],[1,0.5]];portConstraint=eastwest;" parent="UTARnTCa7toa9BuSvRRB-71" vertex="1">
          <mxGeometry y="26" width="160" height="26" as="geometry"/>
        </mxCell>
        <mxCell id="UTARnTCa7toa9BuSvRRB-73" value="" style="line;strokeWidth=1;fillColor=none;align=left;verticalAlign=middle;spacingTop=-1;spacingLeft=3;spacingRight=3;rotatable=0;labelPosition=right;points=[];portConstraint=eastwest;" parent="UTARnTCa7toa9BuSvRRB-71" vertex="1">
          <mxGeometry y="52" width="160" height="8" as="geometry"/>
        </mxCell>
        <mxCell id="UTARnTCa7toa9BuSvRRB-74" value="+ method(type): type" style="text;strokeColor=none;fillColor=none;align=left;verticalAlign=top;spacingLeft=4;spacingRight=4;overflow=hidden;rotatable=0;points=[[0,0.5],[1,0.5]];portConstraint=eastwest;" parent="UTARnTCa7toa9BuSvRRB-71" vertex="1">
          <mxGeometry y="60" width="160" height="26" as="geometry"/>
        </mxCell>
        <mxCell id="UTARnTCa7toa9BuSvRRB-75" value="JTextField" style="swimlane;fontStyle=1;align=center;verticalAlign=top;childLayout=stackLayout;horizontal=1;startSize=26;horizontalStack=0;resizeParent=1;resizeParentMax=0;resizeLast=0;collapsible=1;marginBottom=0;" parent="UTARnTCa7toa9BuSvRRB-27" vertex="1">
          <mxGeometry x="206" y="214" width="160" height="86" as="geometry"/>
        </mxCell>
        <mxCell id="UTARnTCa7toa9BuSvRRB-76" value="+ field: type" style="text;strokeColor=none;fillColor=none;align=left;verticalAlign=top;spacingLeft=4;spacingRight=4;overflow=hidden;rotatable=0;points=[[0,0.5],[1,0.5]];portConstraint=eastwest;" parent="UTARnTCa7toa9BuSvRRB-75" vertex="1">
          <mxGeometry y="26" width="160" height="26" as="geometry"/>
        </mxCell>
        <mxCell id="UTARnTCa7toa9BuSvRRB-77" value="" style="line;strokeWidth=1;fillColor=none;align=left;verticalAlign=middle;spacingTop=-1;spacingLeft=3;spacingRight=3;rotatable=0;labelPosition=right;points=[];portConstraint=eastwest;" parent="UTARnTCa7toa9BuSvRRB-75" vertex="1">
          <mxGeometry y="52" width="160" height="8" as="geometry"/>
        </mxCell>
        <mxCell id="UTARnTCa7toa9BuSvRRB-78" value="+ method(type): type" style="text;strokeColor=none;fillColor=none;align=left;verticalAlign=top;spacingLeft=4;spacingRight=4;overflow=hidden;rotatable=0;points=[[0,0.5],[1,0.5]];portConstraint=eastwest;" parent="UTARnTCa7toa9BuSvRRB-75" vertex="1">
          <mxGeometry y="60" width="160" height="26" as="geometry"/>
        </mxCell>
        <mxCell id="UTARnTCa7toa9BuSvRRB-1" value="Classname" style="swimlane;fontStyle=1;align=center;verticalAlign=top;childLayout=stackLayout;horizontal=1;startSize=26;horizontalStack=0;resizeParent=1;resizeParentMax=0;resizeLast=0;collapsible=1;marginBottom=0;" parent="1" vertex="1">
          <mxGeometry x="354" y="-442" width="160" height="254" as="geometry"/>
        </mxCell>
        <mxCell id="UTARnTCa7toa9BuSvRRB-2" value="+ mainFrame_: JFrame&#xa;+ menuBar : JMenubar&#xa;+ toolBar : JToolbar&#xa;+ " style="text;strokeColor=none;fillColor=none;align=left;verticalAlign=top;spacingLeft=4;spacingRight=4;overflow=hidden;rotatable=0;points=[[0,0.5],[1,0.5]];portConstraint=eastwest;" parent="UTARnTCa7toa9BuSvRRB-1" vertex="1">
          <mxGeometry y="26" width="160" height="193" as="geometry"/>
        </mxCell>
        <mxCell id="UTARnTCa7toa9BuSvRRB-3" value="" style="line;strokeWidth=1;fillColor=none;align=left;verticalAlign=middle;spacingTop=-1;spacingLeft=3;spacingRight=3;rotatable=0;labelPosition=right;points=[];portConstraint=eastwest;" parent="UTARnTCa7toa9BuSvRRB-1" vertex="1">
          <mxGeometry y="219" width="160" height="8" as="geometry"/>
        </mxCell>
        <mxCell id="UTARnTCa7toa9BuSvRRB-4" value="+ main(String args[]) : void" style="text;strokeColor=none;fillColor=none;align=left;verticalAlign=top;spacingLeft=4;spacingRight=4;overflow=hidden;rotatable=0;points=[[0,0.5],[1,0.5]];portConstraint=eastwest;" parent="UTARnTCa7toa9BuSvRRB-1" vertex="1">
          <mxGeometry y="227" width="160" height="27" as="geometry"/>
        </mxCell>
        <mxCell id="UTARnTCa7toa9BuSvRRB-23" value="" style="endArrow=block;dashed=1;endFill=0;endSize=12;html=1;exitX=1;exitY=0.5;exitDx=0;exitDy=0;entryX=0;entryY=0.5;entryDx=0;entryDy=0;" parent="1" source="UTARnTCa7toa9BuSvRRB-6" target="UTARnTCa7toa9BuSvRRB-2" edge="1">
          <mxGeometry width="160" relative="1" as="geometry">
            <mxPoint x="313" y="-71" as="sourcePoint"/>
            <mxPoint x="301" y="-313" as="targetPoint"/>
          </mxGeometry>
        </mxCell>
        <mxCell id="UTARnTCa7toa9BuSvRRB-33" value="" style="group" parent="1" vertex="1" connectable="0">
          <mxGeometry x="628" y="-367.5" width="571" height="430" as="geometry"/>
        </mxCell>
        <mxCell id="UTARnTCa7toa9BuSvRRB-49" value="" style="group" parent="UTARnTCa7toa9BuSvRRB-33" vertex="1" connectable="0">
          <mxGeometry x="-38.5" y="-26.5" width="571" height="430" as="geometry"/>
        </mxCell>
        <mxCell id="UTARnTCa7toa9BuSvRRB-34" value="" style="rounded=0;whiteSpace=wrap;html=1;" parent="UTARnTCa7toa9BuSvRRB-49" vertex="1">
          <mxGeometry width="571" height="430" as="geometry"/>
        </mxCell>
        <mxCell id="UTARnTCa7toa9BuSvRRB-35" value="Controls" style="shape=folder;fontStyle=1;spacingTop=10;tabWidth=40;tabHeight=14;tabPosition=left;html=1;" parent="UTARnTCa7toa9BuSvRRB-49" vertex="1">
          <mxGeometry x="10.5" y="11" width="70" height="50" as="geometry"/>
        </mxCell>
        <mxCell id="PHFsthb0EGWCGAfE3bAJ-5" value="DBActions" style="swimlane;fontStyle=1;align=center;verticalAlign=top;childLayout=stackLayout;horizontal=1;startSize=26;horizontalStack=0;resizeParent=1;resizeParentMax=0;resizeLast=0;collapsible=1;marginBottom=0;" parent="UTARnTCa7toa9BuSvRRB-49" vertex="1">
          <mxGeometry x="26.5" y="88.5" width="160" height="86" as="geometry"/>
        </mxCell>
        <mxCell id="PHFsthb0EGWCGAfE3bAJ-6" value="+ field: type" style="text;strokeColor=none;fillColor=none;align=left;verticalAlign=top;spacingLeft=4;spacingRight=4;overflow=hidden;rotatable=0;points=[[0,0.5],[1,0.5]];portConstraint=eastwest;" parent="PHFsthb0EGWCGAfE3bAJ-5" vertex="1">
          <mxGeometry y="26" width="160" height="26" as="geometry"/>
        </mxCell>
        <mxCell id="PHFsthb0EGWCGAfE3bAJ-7" value="" style="line;strokeWidth=1;fillColor=none;align=left;verticalAlign=middle;spacingTop=-1;spacingLeft=3;spacingRight=3;rotatable=0;labelPosition=right;points=[];portConstraint=eastwest;" parent="PHFsthb0EGWCGAfE3bAJ-5" vertex="1">
          <mxGeometry y="52" width="160" height="8" as="geometry"/>
        </mxCell>
        <mxCell id="PHFsthb0EGWCGAfE3bAJ-8" value="+ method(type): type" style="text;strokeColor=none;fillColor=none;align=left;verticalAlign=top;spacingLeft=4;spacingRight=4;overflow=hidden;rotatable=0;points=[[0,0.5],[1,0.5]];portConstraint=eastwest;" parent="PHFsthb0EGWCGAfE3bAJ-5" vertex="1">
          <mxGeometry y="60" width="160" height="26" as="geometry"/>
        </mxCell>
        <mxCell id="e0PmdpuaOLFBVvInaKat-1" value="CSVI" style="swimlane;fontStyle=1;align=center;verticalAlign=top;childLayout=stackLayout;horizontal=1;startSize=26;horizontalStack=0;resizeParent=1;resizeParentMax=0;resizeLast=0;collapsible=1;marginBottom=0;" vertex="1" parent="UTARnTCa7toa9BuSvRRB-49">
          <mxGeometry x="256" y="89" width="249" height="86" as="geometry"/>
        </mxCell>
        <mxCell id="e0PmdpuaOLFBVvInaKat-2" value="+ field: type" style="text;strokeColor=none;fillColor=none;align=left;verticalAlign=top;spacingLeft=4;spacingRight=4;overflow=hidden;rotatable=0;points=[[0,0.5],[1,0.5]];portConstraint=eastwest;" vertex="1" parent="e0PmdpuaOLFBVvInaKat-1">
          <mxGeometry y="26" width="249" height="26" as="geometry"/>
        </mxCell>
        <mxCell id="e0PmdpuaOLFBVvInaKat-3" value="" style="line;strokeWidth=1;fillColor=none;align=left;verticalAlign=middle;spacingTop=-1;spacingLeft=3;spacingRight=3;rotatable=0;labelPosition=right;points=[];portConstraint=eastwest;" vertex="1" parent="e0PmdpuaOLFBVvInaKat-1">
          <mxGeometry y="52" width="249" height="8" as="geometry"/>
        </mxCell>
        <mxCell id="e0PmdpuaOLFBVvInaKat-4" value="+ CSVOpen(String path): List&lt;List&lt;String&gt;&gt;" style="text;strokeColor=none;fillColor=none;align=left;verticalAlign=top;spacingLeft=4;spacingRight=4;overflow=hidden;rotatable=0;points=[[0,0.5],[1,0.5]];portConstraint=eastwest;" vertex="1" parent="e0PmdpuaOLFBVvInaKat-1">
          <mxGeometry y="60" width="249" height="26" as="geometry"/>
        </mxCell>
        <mxCell id="e0PmdpuaOLFBVvInaKat-5" value="CSVO" style="swimlane;fontStyle=1;align=center;verticalAlign=top;childLayout=stackLayout;horizontal=1;startSize=26;horizontalStack=0;resizeParent=1;resizeParentMax=0;resizeLast=0;collapsible=1;marginBottom=0;" vertex="1" parent="UTARnTCa7toa9BuSvRRB-49">
          <mxGeometry x="27" y="250" width="235" height="86" as="geometry"/>
        </mxCell>
        <mxCell id="e0PmdpuaOLFBVvInaKat-6" value="+ field: type" style="text;strokeColor=none;fillColor=none;align=left;verticalAlign=top;spacingLeft=4;spacingRight=4;overflow=hidden;rotatable=0;points=[[0,0.5],[1,0.5]];portConstraint=eastwest;" vertex="1" parent="e0PmdpuaOLFBVvInaKat-5">
          <mxGeometry y="26" width="235" height="26" as="geometry"/>
        </mxCell>
        <mxCell id="e0PmdpuaOLFBVvInaKat-7" value="" style="line;strokeWidth=1;fillColor=none;align=left;verticalAlign=middle;spacingTop=-1;spacingLeft=3;spacingRight=3;rotatable=0;labelPosition=right;points=[];portConstraint=eastwest;" vertex="1" parent="e0PmdpuaOLFBVvInaKat-5">
          <mxGeometry y="52" width="235" height="8" as="geometry"/>
        </mxCell>
        <mxCell id="e0PmdpuaOLFBVvInaKat-8" value="+ CSVOut(List&lt;List&lt;String&gt;&gt; read) : void" style="text;strokeColor=none;fillColor=none;align=left;verticalAlign=top;spacingLeft=4;spacingRight=4;overflow=hidden;rotatable=0;points=[[0,0.5],[1,0.5]];portConstraint=eastwest;" vertex="1" parent="e0PmdpuaOLFBVvInaKat-5">
          <mxGeometry y="60" width="235" height="26" as="geometry"/>
        </mxCell>
      </root>
    </mxGraphModel>
  </diagram>
</mxfile>
